<svg xmlns="http://www.w3.org/2000/svg" xmlns:xlink="http://www.w3.org/1999/xlink" xmlns:lucid="lucid" width="560" height="336"><g transform="translate(0 0)" lucid:page-tab-id="0_0"><path d="M0 0h560v336H0z" fill="#dfe3e8"/><path d="M306.2 31.96a6 6 0 0 1 6-6h48.27a6 6 0 0 1 6 6v21.2a6 6 0 0 1-6 6H312.2a6 6 0 0 1-6-6z" stroke="#3a414a" fill="#6db1ff"/><use xlink:href="#a" transform="matrix(1,0,0,1,306.1940957836341,25.956490906565577) translate(10.90006172839506 22.02777777777778)"/><path d="M336.33 60.14v18.24a6 6 0 0 1-6 6h-116.6a6 6 0 0 0-6 6v18.25" stroke="#3a414a" fill="none"/><path d="M336.83 60.15h-1v-.5l1-.02zM208.22 109.13h-1v-.5h1z" stroke="#3a414a" stroke-width=".05" fill="#3a414a"/><path d="M177.58 115.6a6 6 0 0 1 6-6h48.28a6 6 0 0 1 6 6v21.2a6 6 0 0 1-6 6h-48.28a6 6 0 0 1-6-6z" stroke="#3a414a" fill="#6db1ff"/><use xlink:href="#b" transform="matrix(1,0,0,1,177.5840170377595,109.59355502898914) translate(23.832160493827164 22.02777777777778)"/><path d="M111.02 199.23a6 6 0 0 1 6-6h48.28a6 6 0 0 1 6 6v21.22a6 6 0 0 1-6 6h-48.28a6 6 0 0 1-6-6z" stroke="#3a414a" fill="#ff8f8f"/><use xlink:href="#c" transform="matrix(1,0,0,1,111.01851647235662,193.23061915146639) translate(23.832160493827164 22.02777777777778)"/><path d="M207.72 143.77v18.25a6 6 0 0 1-6 6h-54.56a6 6 0 0 0-6 6v18.25" stroke="#3a414a" fill="none"/><path d="M208.22 143.78h-1v-.5h1zM141.66 192.77h-1v-.52h1z" stroke="#3a414a" stroke-width=".05" fill="#3a414a"/><path d="M41.74 282.87a6 6 0 0 1 6-6h48.28a6 6 0 0 1 6 6v21.2a6 6 0 0 1-6 6H47.74a6 6 0 0 1-6-6z" stroke="#3a414a" fill="#6db1ff"/><use xlink:href="#d" transform="matrix(1,0,0,1,41.740462475942536,276.86768327394367) translate(24.449444444444445 22.02777777777778)"/><path d="M141.16 227.4v18.26a6 6 0 0 1-6 6H77.88a6 6 0 0 0-6 6v18.24" stroke="#3a414a" fill="none"/><path d="M141.66 227.42h-1v-.5h1zM72.38 276.4h-1v-.5h1z" stroke="#3a414a" stroke-width=".05" fill="#3a414a"/><path d="M177.58 282.87a6 6 0 0 1 6-6h48.28a6 6 0 0 1 6 6v21.2a6 6 0 0 1-6 6h-48.28a6 6 0 0 1-6-6z" stroke="#3a414a" fill="#6db1ff"/><use xlink:href="#e" transform="matrix(1,0,0,1,177.5840170377595,276.86768327394367) translate(23.832160493827164 22.02777777777778)"/><path d="M141.16 227.4v18.26a6 6 0 0 0 6 6h54.56a6 6 0 0 1 6 6v18.24" stroke="#3a414a" fill="none"/><path d="M141.66 227.42h-1v-.5h1zM208.22 276.4h-1v-.5h1z" stroke="#3a414a" stroke-width=".05" fill="#3a414a"/><path d="M241.17 199.23a6 6 0 0 1 6-6h48.28a6 6 0 0 1 6 6v21.22a6 6 0 0 1-6 6h-48.28a6 6 0 0 1-6-6z" stroke="#3a414a" fill="#fff"/><use xlink:href="#f" transform="matrix(1,0,0,1,241.17307776089496,193.23061915149447) translate(23.832160493827164 22.02777777777778)"/><path d="M207.72 143.77v18.25a6 6 0 0 0 6 6h51.6a6 6 0 0 1 6 6v18.25" stroke="#3a414a" fill="none"/><path d="M208.22 143.78h-1v-.5h1zM271.8 192.77h-1v-.52h1z" stroke="#3a414a" stroke-width=".05" fill="#3a414a"/><path d="M306.2 115.6a6 6 0 0 1 6-6h48.27a6 6 0 0 1 6 6v21.2a6 6 0 0 1-6 6H312.2a6 6 0 0 1-6-6z" stroke="#3a414a" fill="#fff"/><use xlink:href="#g" transform="matrix(1,0,0,1,306.1940957836341,109.59355502901597) translate(26.91858024691358 22.02777777777778)"/><path d="M434.8 115.6a6 6 0 0 1 6-6h48.28a6 6 0 0 1 6 6v21.2a6 6 0 0 1-6 6H440.8a6 6 0 0 1-6-6z" stroke="#3a414a" fill="#fff"/><use xlink:href="#h" transform="matrix(1,0,0,1,434.8041745295087,109.59355502901597) translate(23.832160493827164 22.02777777777778)"/><path d="M336.33 60.14v48.5" stroke="#3a414a" fill="none"/><path d="M336.83 60.15h-1v-.5l1-.02zM336.83 109.13h-1v-.5h1z" stroke="#3a414a" stroke-width=".05" fill="#3a414a"/><path d="M336.33 60.14v18.24a6 6 0 0 0 6 6h116.6a6 6 0 0 1 6 6v18.25" stroke="#3a414a" fill="none"/><path d="M336.83 60.15h-1v-.5l1-.02zM465.44 109.13h-1v-.5h1z" stroke="#3a414a" stroke-width=".05" fill="#3a414a"/><path d="M279.3 31.96a6 6 0 0 1 6-6h14.9a6 6 0 0 1 6 6v21.2a6 6 0 0 1-6 6h-14.9a6 6 0 0 1-6-6z" stroke="#000" stroke-opacity="0" fill-opacity="0"/><use xlink:href="#i" transform="matrix(1,0,0,1,279.2964131466357,25.956490906565577) translate(14.592592592592595 19.166666666666664)"/><path d="M150.7 115.6a6 6 0 0 1 6-6h14.88a6 6 0 0 1 6 6v21.2a6 6 0 0 1-6 6h-14.9a6 6 0 0 1-6-6z" stroke="#000" stroke-opacity="0" fill-opacity="0"/><use xlink:href="#j" transform="matrix(1,0,0,1,150.68633440078702,109.59355502901599) translate(14.592592592592595 19.166666666666664)"/><path d="M237.86 115.6a6 6 0 0 1 6-6h14.9a6 6 0 0 1 6 6v21.2a6 6 0 0 1-6 6h-14.9a6 6 0 0 1-6-6z" stroke="#000" stroke-opacity="0" fill-opacity="0"/><use xlink:href="#k" transform="matrix(1,0,0,1,237.86445584706962,109.59355502901599) translate(5 19.166666666666664)"/><path d="M84.12 199.23a6 6 0 0 1 6-6h14.9a6 6 0 0 1 6 6v21.22a6 6 0 0 1-6 6h-14.9a6 6 0 0 1-6-6z" stroke="#000" stroke-opacity="0" fill-opacity="0"/><use xlink:href="#l" transform="matrix(1,0,0,1,84.12083383533172,193.23061915149447) translate(14.592592592592595 19.166666666666664)"/><path d="M14.84 282.87a6 6 0 0 1 6-6h14.9a6 6 0 0 1 6 6v21.2a6 6 0 0 1-6 6h-14.9a6 6 0 0 1-6-6z" stroke="#000" stroke-opacity="0" fill-opacity="0"/><use xlink:href="#m" transform="matrix(1,0,0,1,14.842779838945713,276.86768327397294) translate(14.592592592592595 19.166666666666664)"/><path d="M279.3 115.6a6 6 0 0 1 6-6h14.9a6 6 0 0 1 6 6v21.2a6 6 0 0 1-6 6h-14.9a6 6 0 0 1-6-6z" stroke="#000" stroke-opacity="0" fill-opacity="0"/><use xlink:href="#n" transform="matrix(1,0,0,1,279.29641314665787,109.59355502901599) translate(8.18518518518519 19.166666666666664)"/><path d="M366.47 115.6a6 6 0 0 1 6-6h14.9a6 6 0 0 1 6 6v21.2a6 6 0 0 1-6 6h-14.9a6 6 0 0 1-6-6z" stroke="#000" stroke-opacity="0" fill-opacity="0"/><use xlink:href="#o" transform="matrix(1,0,0,1,366.47453459298185,109.59355502901599) translate(5 19.166666666666664)"/><path d="M495.08 115.6a6 6 0 0 1 6-6h14.9a6 6 0 0 1 6 6v21.2a6 6 0 0 1-6 6h-14.9a6 6 0 0 1-6-6z" stroke="#000" stroke-opacity="0" fill-opacity="0"/><use xlink:href="#p" transform="matrix(1,0,0,1,495.0846133388114,109.59355502901599) translate(5 19.166666666666664)"/><path d="M407.9 115.6a6 6 0 0 1 6-6h14.9a6 6 0 0 1 6 6v21.2a6 6 0 0 1-6 6h-14.9a6 6 0 0 1-6-6z" stroke="#000" stroke-opacity="0" fill-opacity="0"/><use xlink:href="#q" transform="matrix(1,0,0,1,407.9064918925287,109.59355502901599) translate(7.185185185185192 19.166666666666664)"/><path d="M366.47 31.96a6 6 0 0 1 6-6h14.9a6 6 0 0 1 6 6v21.2a6 6 0 0 1-6 6h-14.9a6 6 0 0 1-6-6z" stroke="#000" stroke-opacity="0" fill-opacity="0"/><use xlink:href="#r" transform="matrix(1,0,0,1,366.4745345929405,25.95649090653751) translate(5 19.166666666666664)"/><path d="M214.28 199.23a6 6 0 0 1 6-6h14.9a6 6 0 0 1 6 6v21.22a6 6 0 0 1-6 6h-14.9a6 6 0 0 1-6-6z" stroke="#000" stroke-opacity="0" fill-opacity="0"/><use xlink:href="#s" transform="matrix(1,0,0,1,214.27539512385903,193.23061915151862) translate(14.592592592592595 19.166666666666664)"/><path d="M301.45 199.23a6 6 0 0 1 6-6h14.9a6 6 0 0 1 6 6v21.22a6 6 0 0 1-6 6h-14.9a6 6 0 0 1-6-6z" stroke="#000" stroke-opacity="0" fill-opacity="0"/><use xlink:href="#t" transform="matrix(1,0,0,1,301.45351657014163,193.23061915151862) translate(5 19.166666666666664)"/><path d="M150.7 282.87a6 6 0 0 1 6-6h14.88a6 6 0 0 1 6 6v21.2a6 6 0 0 1-6 6h-14.9a6 6 0 0 1-6-6z" stroke="#000" stroke-opacity="0" fill-opacity="0"/><use xlink:href="#u" transform="matrix(1,0,0,1,150.68633440077593,276.8676832739971) translate(14.592592592592595 19.166666666666664)"/><path d="M237.86 282.87a6 6 0 0 1 6-6h14.9a6 6 0 0 1 6 6v21.2a6 6 0 0 1-6 6h-14.9a6 6 0 0 1-6-6z" stroke="#000" stroke-opacity="0" fill-opacity="0"/><use xlink:href="#v" transform="matrix(1,0,0,1,237.86445584705854,276.8676832739971) translate(5 19.166666666666664)"/><path d="M171.3 199.23a6 6 0 0 1 6-6h14.9a6 6 0 0 1 6 6v21.22a6 6 0 0 1-6 6h-14.9a6 6 0 0 1-6-6z" stroke="#000" stroke-opacity="0" fill-opacity="0"/><use xlink:href="#w" transform="matrix(1,0,0,1,171.29895528173074,193.23061915149447) translate(5 19.166666666666664)"/><path d="M102.02 282.87a6 6 0 0 1 6-6h14.9a6 6 0 0 1 6 6v21.2a6 6 0 0 1-6 6h-14.9a6 6 0 0 1-6-6z" stroke="#000" stroke-opacity="0" fill-opacity="0"/><use xlink:href="#x" transform="matrix(1,0,0,1,102.02090128534473,276.86768327397294) translate(5 19.166666666666664)"/><defs><path fill="#3a414a" d="M114-163C36-179 61-72 57 0H25l-1-190h30c1 12-1 29 2 39 6-27 23-49 58-41v29" id="y"/><path fill="#3a414a" d="M100-194c62-1 85 37 85 99 1 63-27 99-86 99S16-35 15-95c0-66 28-99 85-99zM99-20c44 1 53-31 53-75 0-43-8-75-51-75s-53 32-53 75 10 74 51 75" id="z"/><path fill="#3a414a" d="M59-47c-2 24 18 29 38 22v24C64 9 27 4 27-40v-127H5v-23h24l9-43h21v43h35v23H59v120" id="A"/><g id="a"><use transform="matrix(0.06172839506172839,0,0,0.06172839506172839,0,0)" xlink:href="#y"/><use transform="matrix(0.06172839506172839,0,0,0.06172839506172839,7.345679012345679,0)" xlink:href="#z"/><use transform="matrix(0.06172839506172839,0,0,0.06172839506172839,19.691358024691358,0)" xlink:href="#z"/><use transform="matrix(0.06172839506172839,0,0,0.06172839506172839,32.03703703703704,0)" xlink:href="#A"/></g><path fill="#3a414a" d="M141-36C126-15 110 5 73 4 37 3 15-17 15-53c-1-64 63-63 125-63 3-35-9-54-41-54-24 1-41 7-42 31l-33-3c5-37 33-52 76-52 45 0 72 20 72 64v82c-1 20 7 32 28 27v20c-31 9-61-2-59-35zM48-53c0 20 12 33 32 33 41-3 63-29 60-74-43 2-92-5-92 41" id="B"/><use transform="matrix(0.06172839506172839,0,0,0.06172839506172839,0,0)" xlink:href="#B" id="b"/><path fill="#3a414a" d="M115-194c53 0 69 39 70 98 0 66-23 100-70 100C84 3 66-7 56-30L54 0H23l1-261h32v101c10-23 28-34 59-34zm-8 174c40 0 45-34 45-75 0-40-5-75-45-74-42 0-51 32-51 76 0 43 10 73 51 73" id="C"/><use transform="matrix(0.06172839506172839,0,0,0.06172839506172839,0,0)" xlink:href="#C" id="c"/><path fill="#3a414a" d="M96-169c-40 0-48 33-48 73s9 75 48 75c24 0 41-14 43-38l32 2c-6 37-31 61-74 61-59 0-76-41-82-99-10-93 101-131 147-64 4 7 5 14 7 22l-32 3c-4-21-16-35-41-35" id="D"/><use transform="matrix(0.06172839506172839,0,0,0.06172839506172839,0,0)" xlink:href="#D" id="d"/><path fill="#3a414a" d="M85-194c31 0 48 13 60 33l-1-100h32l1 261h-30c-2-10 0-23-3-31C134-8 116 4 85 4 32 4 16-35 15-94c0-66 23-100 70-100zm9 24c-40 0-46 34-46 75 0 40 6 74 45 74 42 0 51-32 51-76 0-42-9-74-50-73" id="E"/><use transform="matrix(0.06172839506172839,0,0,0.06172839506172839,0,0)" xlink:href="#E" id="e"/><path fill="#3a414a" d="M100-194c63 0 86 42 84 106H49c0 40 14 67 53 68 26 1 43-12 49-29l28 8c-11 28-37 45-77 45C44 4 14-33 15-96c1-61 26-98 85-98zm52 81c6-60-76-77-97-28-3 7-6 17-6 28h103" id="F"/><use transform="matrix(0.06172839506172839,0,0,0.06172839506172839,0,0)" xlink:href="#F" id="f"/><path fill="#3a414a" d="M101-234c-31-9-42 10-38 44h38v23H63V0H32v-167H5v-23h27c-7-52 17-82 69-68v24" id="G"/><use transform="matrix(0.06172839506172839,0,0,0.06172839506172839,0,0)" xlink:href="#G" id="g"/><path fill="#3a414a" d="M177-190C167-65 218 103 67 71c-23-6-38-20-44-43l32-5c15 47 100 32 89-28v-30C133-14 115 1 83 1 29 1 15-40 15-95c0-56 16-97 71-98 29-1 48 16 59 35 1-10 0-23 2-32h30zM94-22c36 0 50-32 50-73 0-42-14-75-50-75-39 0-46 34-46 75s6 73 46 73" id="H"/><use transform="matrix(0.06172839506172839,0,0,0.06172839506172839,0,0)" xlink:href="#H" id="h"/><path fill="#6f7681" d="M101-251c68 0 85 55 85 127S166 4 100 4C33 4 14-52 14-124c0-73 17-127 87-127zm-1 229c47 0 54-49 54-102s-4-102-53-102c-51 0-55 48-55 102 0 53 5 102 54 102" id="I"/><use transform="matrix(0.03703703703703702,0,0,0.03703703703703702,0,0)" xlink:href="#I" id="i"/><path fill="#6f7681" d="M27 0v-27h64v-190l-56 39v-29l58-41h29v221h61V0H27" id="J"/><use transform="matrix(0.03703703703703702,0,0,0.03703703703703702,0,0)" xlink:href="#J" id="j"/><g id="k"><use transform="matrix(0.03703703703703702,0,0,0.03703703703703702,0,0)" xlink:href="#J"/><use transform="matrix(0.03703703703703702,0,0,0.03703703703703702,7.407407407407404,0)" xlink:href="#I"/></g><path fill="#6f7681" d="M101-251c82-7 93 87 43 132L82-64C71-53 59-42 53-27h129V0H18c2-99 128-94 128-182 0-28-16-43-45-43s-46 15-49 41l-32-3c6-41 34-60 81-64" id="K"/><use transform="matrix(0.03703703703703702,0,0,0.03703703703703702,0,0)" xlink:href="#K" id="l"/><path fill="#6f7681" d="M126-127c33 6 58 20 58 59 0 88-139 92-164 29-3-8-5-16-6-25l32-3c6 27 21 44 54 44 32 0 52-15 52-46 0-38-36-46-79-43v-28c39 1 72-4 72-42 0-27-17-43-46-43-28 0-47 15-49 41l-32-3c6-42 35-63 81-64 48-1 79 21 79 65 0 36-21 52-52 59" id="L"/><use transform="matrix(0.03703703703703702,0,0,0.03703703703703702,0,0)" xlink:href="#L" id="m"/><g id="n"><use transform="matrix(0.03703703703703702,0,0,0.03703703703703702,0,0)" xlink:href="#J"/><use transform="matrix(0.03703703703703702,0,0,0.03703703703703702,6.407407407407405,0)" xlink:href="#J"/></g><g id="o"><use transform="matrix(0.03703703703703702,0,0,0.03703703703703702,0,0)" xlink:href="#J"/><use transform="matrix(0.03703703703703702,0,0,0.03703703703703702,7.407407407407404,0)" xlink:href="#K"/></g><path fill="#6f7681" d="M155-56V0h-30v-56H8v-25l114-167h33v167h35v25h-35zm-30-156c-27 46-58 90-88 131h88v-131" id="M"/><g id="p"><use transform="matrix(0.03703703703703702,0,0,0.03703703703703702,0,0)" xlink:href="#J"/><use transform="matrix(0.03703703703703702,0,0,0.03703703703703702,7.407407407407404,0)" xlink:href="#M"/></g><g id="q"><use transform="matrix(0.03703703703703702,0,0,0.03703703703703702,0,0)" xlink:href="#J"/><use transform="matrix(0.03703703703703702,0,0,0.03703703703703702,7.407407407407404,0)" xlink:href="#L"/></g><path fill="#6f7681" d="M54-142c48-35 137-8 131 61C196 18 31 33 14-55l32-4c7 23 22 37 52 37 35-1 51-22 54-58 4-55-73-65-99-34H22l8-134h141v27H59" id="N"/><g id="r"><use transform="matrix(0.03703703703703702,0,0,0.03703703703703702,0,0)" xlink:href="#J"/><use transform="matrix(0.03703703703703702,0,0,0.03703703703703702,7.407407407407404,0)" xlink:href="#N"/></g><path fill="#6f7681" d="M134-131c28 9 52 24 51 62-1 50-34 73-85 73S17-19 16-69c0-36 21-54 49-61-75-25-45-126 34-121 46 3 78 18 79 63 0 33-17 51-44 57zm-34-11c31 1 46-15 46-44 0-28-17-43-47-42-29 0-46 13-45 42 1 28 16 44 46 44zm1 122c35 0 51-18 51-52 0-30-18-46-53-46-33 0-51 17-51 47 0 34 19 51 53 51" id="O"/><use transform="matrix(0.03703703703703702,0,0,0.03703703703703702,0,0)" xlink:href="#O" id="s"/><path fill="#6f7681" d="M99-251c64 0 84 50 84 122C183-37 130 33 47-8c-14-7-20-23-25-40l30-5c6 39 69 39 84 7 9-19 16-44 16-74-10 22-31 35-62 35-49 0-73-33-73-83 0-54 28-83 82-83zm-1 141c31-1 51-18 51-49 0-36-14-67-51-67-34 0-49 23-49 58 0 34 15 58 49 58" id="P"/><use transform="matrix(0.03703703703703702,0,0,0.03703703703703702,0,0)" xlink:href="#P" id="t"/><use transform="matrix(0.03703703703703702,0,0,0.03703703703703702,0,0)" xlink:href="#N" id="u"/><path fill="#6f7681" d="M110-160c48 1 74 30 74 79 0 53-28 85-80 85-65 0-83-55-86-122-5-90 50-162 133-122 14 7 22 21 27 39l-31 6c-5-40-67-38-82-6-9 19-15 44-15 74 11-20 30-34 60-33zm-7 138c34 0 49-23 49-58s-16-56-50-56c-29 0-50 16-49 49 1 36 15 65 50 65" id="Q"/><use transform="matrix(0.03703703703703702,0,0,0.03703703703703702,0,0)" xlink:href="#Q" id="v"/><path fill="#6f7681" d="M64 0c3-98 48-159 88-221H18v-27h164v26C143-157 98-101 97 0H64" id="R"/><use transform="matrix(0.03703703703703702,0,0,0.03703703703703702,0,0)" xlink:href="#R" id="w"/><use transform="matrix(0.03703703703703702,0,0,0.03703703703703702,0,0)" xlink:href="#M" id="x"/></defs></g></svg>